<svg height="512pt" viewBox="-3 0 512 512" width="512pt" xmlns="http://www.w3.org/2000/svg"><path d="m425.328125 319.285156c21.394531-32.492187 33.867187-71.355468 33.867187-113.085937 0-113.699219-92.503906-206.199219-206.203124-206.199219-113.699219 0-206.199219 92.5-206.199219 206.199219 0 41.730469 12.472656 80.59375 33.863281 113.085937l-80.65625 117.628906 92.292969-17.207031 17.210937 92.292969 76.0625-110.933594c21.140625 7.335938 43.824219 11.332032 67.425782 11.332032 23.605468 0 46.289062-3.996094 67.425781-11.332032l76.066406 110.933594 17.207031-92.292969 92.292969 17.207031zm-299.515625 115.566406-9.386719-50.34375-50.339843 9.390626 33.96875-49.542969c16.269531 17.992187 35.664062 33.101562 57.3125 44.484375zm-48.84375-228.652343c0-97.058594 78.964844-176.023438 176.023438-176.023438 97.0625 0 176.027343 78.964844 176.027343 176.023438 0 97.0625-78.964843 176.027343-176.027343 176.027343-97.058594 0-176.023438-78.964843-176.023438-176.027343zm312.589844 178.308593-9.386719 50.34375-31.550781-46.011718c21.648437-11.382813 41.042968-26.492188 57.3125-44.484375l33.96875 49.539062zm0 0"/><path d="m216.234375 251.484375-49.0625-49.058594-21.335937 21.335938 70.398437 70.398437 143.917969-143.914062-21.335938-21.335938zm0 0"/></svg>