<?xml version="1.0" encoding="iso-8859-1"?>
<!-- Generator: Adobe Illustrator 18.0.0, SVG Export Plug-In . SVG Version: 6.00 Build 0)  -->
<!DOCTYPE svg PUBLIC "-//W3C//DTD SVG 1.1//EN" "http://www.w3.org/Graphics/SVG/1.1/DTD/svg11.dtd">
<svg version="1.1" id="Capa_1" xmlns="http://www.w3.org/2000/svg" xmlns:xlink="http://www.w3.org/1999/xlink" x="0px" y="0px"
	 viewBox="0 0 468.436 468.436" style="enable-background:new 0 0 468.436 468.436;" xml:space="preserve">
<g>
	<path d="M369.919,125.651c0,0-2.58-92.137-2.697-93.246c-0.18-1.709-0.625-3.398-1.338-5.016c-1.817-4.12-5.13-7.286-9.328-8.915
		l-27.3-10.59c-4.2-1.629-8.781-1.525-12.9,0.291c-4.12,1.817-7.286,5.13-8.915,9.329L288.707,65.79
		c-2.858-0.687-5.752-1.277-8.679-1.771V45.81c0-25.26-20.55-45.81-45.81-45.81s-45.811,20.55-45.811,45.81v18.21
		c-2.935,0.495-5.837,1.087-8.702,1.776L160.97,17.504c-1.629-4.199-4.795-7.512-8.915-9.329c-4.119-1.817-8.7-1.921-12.9-0.291
		l-27.3,10.59c-4.198,1.629-7.511,4.794-9.328,8.915c-0.688,1.56-1.126,3.186-1.319,4.833c-0.136,1.161-2.712,93.463-2.712,93.463
		c-11.605,19.435-18.286,42.135-18.286,66.369v247.967c0,15.667,12.746,28.414,28.414,28.414h251.187
		c15.668,0,28.414-12.747,28.414-28.414V192.055C388.225,167.806,381.537,145.093,369.919,125.651z M354.285,104.612
		c-2.985-3.271-6.138-6.385-9.439-9.337l8.508-21.933L354.285,104.612z M321.425,22.93c0.371-0.956,1.452-1.431,2.405-1.061
		l27.3,10.59c0.594,0.23,0.888,0.662,1.029,0.982c0.142,0.321,0.262,0.829,0.031,1.423L332.538,85.53
		c-9.042-6.314-18.917-11.513-29.431-15.384L321.425,22.93z M234.219,15c15.32,0,28.06,11.241,30.415,25.908
		c-8.16-7.255-18.87-11.639-30.416-11.639c-11.32,0-22.007,4.085-30.399,11.548C206.212,26.195,218.93,15,234.219,15z
		 M262.228,62.266c-1.28-0.037-54.741-0.037-56.022,0c1.509-3.297,3.589-6.332,6.226-8.975c5.819-5.818,13.556-9.022,21.785-9.022
		C246.462,44.269,257.312,51.587,262.228,62.266z M116.252,33.441c0.142-0.321,0.436-0.752,1.029-0.982l27.3-10.59
		c0.955-0.371,2.035,0.106,2.405,1.061l18.321,47.225c-10.514,3.872-20.388,9.073-29.429,15.389l-19.658-50.68
		C115.99,34.27,116.11,33.763,116.252,33.441z M115.058,73.344l8.513,21.947c-3.302,2.955-6.456,6.071-9.442,9.344L115.058,73.344z
		 M373.225,440.022c0,7.396-6.018,13.414-13.414,13.414H108.625c-7.396,0-13.414-6.018-13.414-13.414V192.055
		c0-63.329,51.521-114.85,114.851-114.85h48.314c63.328,0,114.85,51.521,114.85,114.85V440.022z"/>
	<path d="M132.452,253.728c-12.107,0-21.957,9.85-21.957,21.957v141.329c0,12.107,9.85,21.957,21.957,21.957h203.533
		c12.107,0,21.957-9.85,21.957-21.957V275.685c0-12.107-9.85-21.957-21.957-21.957H132.452z M335.985,423.971H132.452
		c-3.836,0-6.957-3.121-6.957-6.957v-94.267h188.801v17.055h15v-17.055h13.646v94.267
		C342.942,420.85,339.821,423.971,335.985,423.971z M342.942,275.685v32.062H125.495v-32.062c0-3.836,3.121-6.957,6.957-6.957
		h203.533C339.821,268.728,342.942,271.849,342.942,275.685z"/>
	<path d="M281.824,108.039h-95.211v42.828h95.211V108.039z M266.824,135.867h-65.211v-12.828h65.211V135.867z"/>
</g>
<g>
</g>
<g>
</g>
<g>
</g>
<g>
</g>
<g>
</g>
<g>
</g>
<g>
</g>
<g>
</g>
<g>
</g>
<g>
</g>
<g>
</g>
<g>
</g>
<g>
</g>
<g>
</g>
<g>
</g>
</svg>
