<?xml version="1.0" encoding="iso-8859-1"?>
<!-- Generator: Adobe Illustrator 19.0.0, SVG Export Plug-In . SVG Version: 6.00 Build 0)  -->
<svg version="1.1" id="Layer_1" xmlns="http://www.w3.org/2000/svg" xmlns:xlink="http://www.w3.org/1999/xlink" x="0px" y="0px"
	 viewBox="0 0 512.002 512.002" style="enable-background:new 0 0 512.002 512.002;" xml:space="preserve">
<g>
	<g>
		<g>
			<path d="M499.234,173.294c-15.924-5.144-53.216-17.185-122.256-15.369c-31.991,0.845-63.76,4.573-86.957,7.296
				c-15.318,1.798-27.418,3.218-34.022,3.218s-18.704-1.42-34.022-3.218c-23.197-2.723-54.966-6.451-86.957-7.296
				c-69.03-1.819-106.331,10.225-122.254,15.369C5.13,175.76,0,182.813,0,190.844v18.318c0,7.646,4.838,14.48,12.039,17.004
				c5.274,1.849,8.704,4.345,9.022,6.548c0.3,10.367,2.207,21.976,5.668,34.51c2.366,8.567,4.781,16.288,7.29,23.275l-14.24,12.247
				c-4.652,4-6.912,10.015-6.045,16.089c0.866,6.074,4.717,11.217,10.301,13.758l12.535,5.705c3.976,1.809,8.222,2.693,12.447,2.693
				c4.712,0,9.384-1.123,13.629-3.262c0.43,0.375,0.862,0.746,1.3,1.108c16.747,13.873,39.495,14.558,57.771,15.108
				c1.393,0.042,2.77,0.084,4.126,0.131c3.529,0.121,6.965,0.187,10.326,0.187c49.245-0.001,80.847-14.174,103.098-76.626
				c5.574-15.645,8.436-29.37,8.746-41.962c0.001-0.065,0.002-0.131,0.002-0.195c0-2.031,0-3.948,7.987-3.948
				c7.989,0,7.989,1.918,7.989,3.948c0,0.064,0,0.13,0.002,0.194c0.31,12.591,3.17,26.317,8.745,41.963
				c22.251,62.456,53.846,76.626,103.098,76.626c3.359,0,6.801-0.066,10.326-0.187c1.356-0.046,2.732-0.089,4.126-0.131
				c18.278-0.551,41.025-1.236,57.771-15.108c0.438-0.363,0.87-0.733,1.3-1.108c4.245,2.139,8.918,3.262,13.63,3.262
				c4.224-0.001,8.471-0.884,12.446-2.693l12.535-5.705c5.584-2.542,9.434-7.685,10.301-13.758
				c0.866-6.074-1.395-12.089-6.045-16.089l-14.241-12.248c2.508-6.986,4.924-14.707,7.29-23.274
				c3.461-12.533,5.369-24.142,5.669-34.511c0.317-2.204,3.747-4.7,9.022-6.548c7.201-2.524,12.039-9.358,12.039-17.004v-18.317
				C512,182.813,506.87,175.76,499.234,173.294z M43.12,323.905L30.585,318.2c-0.855-0.389-1.122-1.083-1.195-1.596
				c-0.073-0.513-0.01-1.255,0.702-1.867l10.194-8.768c3.386,7.354,6.984,13.646,10.885,19.054
				C48.482,325.425,45.681,325.071,43.12,323.905z M481.909,314.737c0.713,0.613,0.775,1.354,0.701,1.867
				c-0.073,0.513-0.339,1.207-1.195,1.596l-12.536,5.705c-2.562,1.166-5.362,1.52-8.052,1.117c3.901-5.408,7.498-11.7,10.885-19.054
				L481.909,314.737z M496.186,209.162L496.186,209.162c-0.001,0.938-0.586,1.774-1.456,2.079
				c-11.874,4.161-18.824,11.372-19.567,20.303c-0.013,0.15-0.021,0.3-0.024,0.451c-0.237,9.162-1.957,19.599-5.112,31.019
				c-9.31,33.71-18.898,52.743-32.059,63.645c-12.564,10.407-31.475,10.978-48.159,11.48c-1.415,0.043-2.813,0.085-4.191,0.132
				c-28.517,0.976-45.771-1.939-59.556-10.074c-16-9.44-28.21-27.193-38.427-55.867c-4.92-13.809-7.554-26.245-7.831-36.963
				c-0.03-6.002-2.454-19.649-23.802-19.649c-21.353,0-23.774,13.654-23.803,19.655c-0.276,10.716-2.911,23.151-7.83,36.958
				c-10.216,28.674-22.426,46.426-38.427,55.867c-13.786,8.135-31.036,11.054-59.556,10.074c-1.378-0.047-2.776-0.09-4.191-0.132
				c-16.685-0.503-35.596-1.072-48.16-11.48c-13.161-10.902-22.749-29.936-32.059-63.645c-3.155-11.419-4.874-21.856-5.112-31.019
				c-0.004-0.151-0.013-0.3-0.024-0.45c-0.743-8.931-7.692-16.142-19.566-20.303c-0.871-0.306-1.456-1.141-1.456-2.08v-18.318
				c0-1.146,0.729-2.151,1.813-2.502c15.154-4.895,50.633-16.367,116.977-14.608c31.275,0.826,62.634,4.505,85.529,7.193
				c15.832,1.858,28.337,3.325,35.866,3.325c7.529,0,20.033-1.468,35.866-3.325c22.897-2.687,54.254-6.367,85.529-7.193
				c66.336-1.748,101.823,9.712,116.978,14.609c1.084,0.35,1.812,1.355,1.812,2.501V209.162z"/>
			<path d="M377.694,179.732c-47.339,1.725-72.645,9.989-84.613,27.632c-9.939,14.652-9.874,34.655,0.209,62.951
				c9.804,27.517,23.389,45.323,41.531,54.438c12.672,6.366,25.986,7.815,38.998,7.815c3.857,0,7.688-0.128,11.467-0.291
				l3.428-0.142c15.845-0.643,29.53-1.199,42.331-10.907c12.992-9.854,23.206-28.214,33.114-59.531
				c8.742-27.628,7.847-47.821-2.735-61.73C445.502,179.042,412.732,178.455,377.694,179.732z M449.078,256.926
				c-8.741,27.624-17.509,44.053-27.594,51.702c-8.845,6.709-19.152,7.127-33.414,7.706l-3.473,0.144
				c-32.405,1.41-58.603-1.487-76.411-51.469c-8.133-22.827-8.793-38.779-2.019-48.766c8.697-12.82,30.934-19.206,72.102-20.706
				c29.498-1.075,59.242-0.878,70.565,14.006C455.975,218.927,456.057,234.869,449.078,256.926z"/>
			<path d="M134.306,179.732c-35.039-1.278-67.81-0.688-83.728,20.234c-10.582,13.91-11.477,34.102-2.735,61.73
				c9.909,31.317,20.122,49.677,33.114,59.531c12.8,9.708,26.486,10.264,42.331,10.907l3.428,0.142
				c3.78,0.164,7.609,0.292,11.467,0.292c13.011,0,26.327-1.45,38.997-7.815c18.142-9.115,31.727-26.921,41.531-54.438
				c10.082-28.297,10.148-48.299,0.209-62.951C206.951,189.72,181.646,181.456,134.306,179.732z M203.813,265.008
				c-17.808,49.983-44.007,52.884-76.411,51.469l-3.473-0.144c-14.264-0.579-24.57-0.997-33.414-7.706
				c-10.085-7.648-18.852-24.076-27.594-51.702c-6.979-22.056-6.897-37.999,0.244-47.384c9.017-11.852,29.715-14.39,52.667-14.39
				c5.87,0,11.891,0.167,17.899,0.385c41.167,1.499,63.405,7.885,72.102,20.706C212.607,226.229,211.946,242.181,203.813,265.008z"
				/>
		</g>
	</g>
</g>
<g>
</g>
<g>
</g>
<g>
</g>
<g>
</g>
<g>
</g>
<g>
</g>
<g>
</g>
<g>
</g>
<g>
</g>
<g>
</g>
<g>
</g>
<g>
</g>
<g>
</g>
<g>
</g>
<g>
</g>
</svg>
